<svg width="61" height="61" viewBox="0 0 61 61" fill="none" xmlns="http://www.w3.org/2000/svg">
<g clip-path="url(#clip0_106_208)">
<path d="M30.502 0.00195437C13.6515 0.00195437 0 14.0091 0 31.2722C0 45.0958 8.73881 56.8124 20.85 60.9459C22.3808 61.241 22.9336 60.2736 22.9336 59.4369C22.9336 58.6945 22.9165 56.7303 22.905 54.123C14.416 56.0072 12.6278 49.9191 12.6278 49.9191C11.2381 46.3153 9.23255 45.3477 9.23255 45.3477C6.47213 43.415 9.45177 43.4559 9.45177 43.4559C12.5096 43.6689 14.1186 46.6708 14.1186 46.6708C16.8389 51.4553 21.256 50.0716 23.0042 49.2664C23.271 47.2514 24.066 45.8656 24.9315 45.0937C18.1601 44.3099 11.0398 41.6226 11.0398 29.6404C11.0398 26.2183 12.2217 23.4312 14.1758 21.2423C13.8383 20.4586 12.8051 17.2729 14.4446 12.9654C14.4446 12.9654 16.9972 12.1309 22.8326 16.1726C25.3183 15.4795 27.8821 15.124 30.4581 15.1153C33.0508 15.1329 35.6415 15.4808 38.0836 16.1726C43.8847 12.1309 46.4352 12.9654 46.4352 12.9654C48.0728 17.2729 47.0396 20.4566 46.7423 21.2423C48.6772 23.4312 49.8591 26.2201 49.8591 29.6404C49.8591 41.65 42.7295 44.2982 35.9504 45.0625C37.0102 45.9986 38.0035 47.9236 38.0035 50.8455C38.0035 55.0278 37.9654 58.3973 37.9654 59.4155C37.9654 60.2286 38.4991 61.2056 40.0699 60.891C52.2706 56.8004 61 45.0742 61 31.2704C61 14.0071 47.3485 0 30.4982 0L30.502 0.00195437Z" fill="#FCFAF4"/>
</g>
<defs>
<clipPath id="clip0_106_208">
<rect width="61" height="61" fill="white"/>
</clipPath>
</defs>
</svg>
