<svg width="163" height="60" viewBox="0 0 163 60" fill="none" xmlns="http://www.w3.org/2000/svg">
<g clip-path="url(#clip0_112_243)">
<path d="M84.1538 19.8732L91.9086 19.3764C92.0856 20.633 92.4099 21.5683 92.9407 22.2405C93.7958 23.2926 94.9752 23.8186 96.538 23.8186C97.6879 23.8186 98.602 23.5556 99.2212 23.0003C99.811 22.5619 100.165 21.8605 100.165 21.1299C100.165 20.4285 99.8404 19.7563 99.2802 19.3179C98.6905 18.7918 97.3046 18.2658 95.1226 17.7982C91.5548 17.0091 88.9895 15.957 87.4857 14.6126C85.9819 13.3559 85.1268 11.5147 85.1858 9.55657C85.1858 8.2122 85.5986 6.86782 86.3652 5.75725C87.2498 4.50056 88.4588 3.50689 89.9036 2.9516C91.4663 2.27942 93.6483 1.92871 96.3906 1.92871C99.752 1.92871 102.317 2.54245 104.086 3.79914C105.856 5.02662 106.917 7.01395 107.241 9.73193L99.5751 10.1703C99.3687 9.00129 98.9559 8.15375 98.2777 7.59846C97.5995 7.04318 96.7149 6.78015 95.5649 6.78015C94.6214 6.78015 93.9137 6.98473 93.4419 7.36466C92.9996 7.71537 92.7048 8.24142 92.7343 8.82594C92.7343 9.26432 92.9701 9.67348 93.324 9.9365C93.7073 10.2872 94.6214 10.6087 96.0662 10.9009C99.634 11.6608 102.17 12.4207 103.733 13.2098C105.295 13.9989 106.416 14.9633 107.094 16.1031C107.802 17.2721 108.156 18.6165 108.126 19.9901C108.126 21.6267 107.654 23.2633 106.711 24.6369C105.738 26.069 104.381 27.1796 102.789 27.8518C101.108 28.5824 98.9853 28.9623 96.4495 28.9623C91.9676 28.9623 88.8716 28.1148 87.1319 26.3905C85.3922 24.6662 84.3602 22.5035 84.1538 19.8732ZM1.85763 28.5239V2.39632H15.4508C17.9571 2.39632 19.9032 2.6009 21.2301 3.03928C22.5275 3.44844 23.6775 4.29598 24.4441 5.43577C25.2992 6.69247 25.712 8.15375 25.6825 9.67347C25.771 12.2453 24.4441 14.7003 22.1737 15.9862C21.2891 16.483 20.316 16.8337 19.3135 17.0091C20.0507 17.2137 20.7878 17.5644 21.4365 17.9735C21.9378 18.3827 22.3506 18.8503 22.7339 19.3471C23.1762 19.844 23.5595 20.3992 23.8839 20.9838L27.835 28.5532H18.5763L14.2124 20.5161C13.6521 19.4933 13.1804 18.8211 12.7381 18.4996C12.1483 18.0904 11.4407 17.8858 10.733 17.8858H10.0253V28.4947H1.85763V28.5239ZM10.0253 12.976H13.4752C14.2124 12.9175 14.92 12.8006 15.6277 12.6253C16.1585 12.5376 16.6302 12.2453 16.9546 11.8069C17.7507 10.7548 17.6328 9.26432 16.6597 8.35833C16.129 7.91994 15.097 7.68614 13.6226 7.68614H10.0253V12.976ZM0 50.9107L7.75488 50.4139C7.9318 51.6706 8.25615 52.6058 8.7869 53.278C9.61252 54.3301 10.8215 54.8854 12.3842 54.8854C13.5342 54.8854 14.4483 54.6223 15.0675 54.067C15.6572 53.5994 16.011 52.9273 16.011 52.1966C16.011 51.4952 15.6867 50.823 15.1264 50.3846C14.5367 49.8586 13.1509 49.3325 10.9394 48.8649C7.37156 48.0758 4.80626 47.0237 3.30246 45.6793C1.79866 44.4226 0.94356 42.5814 1.00253 40.6233C1.00253 39.2789 1.41534 37.9346 2.18198 36.824C3.06657 35.5673 4.27551 34.5736 5.72033 34.0183C7.2831 33.3462 9.46509 32.9954 12.2073 32.9954C15.5687 32.9954 18.134 33.6092 19.9032 34.8659C21.6724 36.1226 22.7044 38.0807 23.0288 40.7987L15.3623 41.237C15.1559 40.068 14.7431 39.2205 14.0649 38.6652C13.4162 38.1099 12.5022 37.8469 11.3522 37.8761C10.4086 37.8761 9.70098 38.0807 9.2292 38.4898C8.75742 38.8405 8.49204 39.3666 8.52153 39.9511C8.52153 40.3895 8.75742 40.7987 9.11125 41.0617C9.49457 41.4124 10.4086 41.7339 11.8535 42.0261C15.4213 42.786 17.9571 43.5459 19.5199 44.3349C21.0827 45.124 22.2031 46.0885 22.8813 47.2283C23.589 48.3973 23.9428 49.7417 23.9428 51.086C23.9428 52.7227 23.4416 54.3301 22.5275 55.7037C21.5544 57.1357 20.1981 58.2463 18.6058 58.9185C16.9251 59.6491 14.8021 60.0291 12.2663 60.0291C7.78437 60.0291 4.68831 59.1815 2.94863 57.4572C1.20894 55.7037 0.23589 53.541 0 50.9107H0Z" fill="white"/>
<path d="M39.2167 48.8651L46.3524 50.9985C45.9691 52.7813 45.1729 54.4764 44.0819 55.9669C43.0794 57.282 41.7525 58.3049 40.2487 58.9771C38.7154 59.6493 36.7693 60 34.4104 60C31.5503 60 29.1914 59.5908 27.3927 58.7725C25.5646 57.9542 24.0018 56.4929 22.6749 54.4179C21.348 52.3429 20.6993 49.6834 20.6993 46.4393C20.6993 42.114 21.8493 38.7823 24.1787 36.4734C26.5081 34.1646 29.7811 32.9956 34.0271 32.9956C37.3591 32.9956 39.9539 33.6678 41.8705 34.9829C43.7576 36.3273 45.1729 38.3731 46.1165 41.1203L38.9218 42.6985C38.7449 42.0847 38.4796 41.471 38.1257 40.9449C37.6834 40.3312 37.1232 39.8636 36.445 39.5129C35.7668 39.1622 35.0002 39.0161 34.2335 39.0161C32.3759 39.0161 30.9606 39.7467 29.9875 41.2372C29.2504 42.3185 28.867 44.0429 28.867 46.3809C28.867 49.2742 29.3093 51.2616 30.1939 52.3429C31.0785 53.4242 32.3169 53.9503 33.9387 53.9503C35.5014 53.9503 36.6809 53.5119 37.477 52.6644C38.2731 51.7584 38.8629 50.5017 39.2167 48.8651ZM55.8764 33.434H64.0147V42.5816H72.9195V33.434H81.1167V59.5616H72.9195V48.982H64.0147V59.5616H55.8764V33.434V33.434Z" fill="white"/>
<path d="M79.9962 46.4977C79.9962 42.2308 81.2052 38.8991 83.5935 36.5318C85.9819 34.1646 89.3434 32.9663 93.6189 32.9663C98.0123 32.9663 101.374 34.1353 103.762 36.4734C106.151 38.8114 107.33 42.0847 107.33 46.2931C107.33 49.3618 106.799 51.846 105.767 53.8041C104.765 55.733 103.202 57.3112 101.285 58.3633C99.3097 59.4446 96.8624 59.9999 93.9432 59.9999C90.9651 59.9999 88.5177 59.5323 86.5717 58.5971C84.5666 57.6034 82.9154 56.0545 81.8244 54.1548C80.6154 52.109 79.9962 49.5664 79.9962 46.4977ZM88.1344 46.5269C88.1344 49.1572 88.6357 51.0569 89.6087 52.2259C90.5818 53.3657 91.9382 53.9502 93.6484 53.9502C95.388 53.9502 96.7444 53.3949 97.7175 52.2552C98.6905 51.1154 99.1623 49.0988 99.1623 46.1762C99.1623 43.7213 98.661 41.9093 97.6585 40.7987C96.656 39.659 95.2996 39.1037 93.5894 39.1037C92.0856 39.0452 90.6408 39.6882 89.6382 40.828C88.6357 41.9678 88.1344 43.8674 88.1344 46.5269V46.5269ZM115.675 46.4977C115.675 42.2308 116.884 38.8991 119.272 36.5318C121.66 34.1646 125.022 32.9663 129.297 32.9663C133.691 32.9663 137.082 34.1353 139.441 36.4734C141.799 38.8114 143.008 42.0847 143.008 46.2931C143.008 49.3618 142.478 51.846 141.446 53.8041C140.443 55.733 138.88 57.3112 136.964 58.3633C134.988 59.4446 132.541 59.9999 129.622 59.9999C126.643 59.9999 124.196 59.5323 122.25 58.5971C120.245 57.6034 118.594 56.0545 117.503 54.1548C116.294 52.109 115.675 49.5664 115.675 46.4977V46.4977ZM123.813 46.5269C123.813 49.1572 124.314 51.0569 125.287 52.2259C126.26 53.3657 127.617 53.9502 129.327 53.9502C131.066 53.9502 132.423 53.3949 133.396 52.2552C134.369 51.1154 134.841 49.0988 134.841 46.1762C134.841 43.7213 134.339 41.9093 133.337 40.7987C132.334 39.659 130.978 39.1037 129.268 39.1037C127.764 39.0452 126.29 39.6882 125.317 40.828C124.314 41.9678 123.813 43.8674 123.813 46.5269V46.5269Z" fill="white"/>
<path d="M142.153 33.4341H150.291V53.1321H163V59.5617H142.124V33.4341H142.153Z" fill="white"/>
<path d="M133.183 31.9262C141.377 25.8064 143.903 15.4323 138.826 8.75506C133.75 2.0778 122.992 1.62591 114.799 7.74574C106.605 13.8656 104.079 24.2396 109.155 30.9169C114.232 37.5942 124.99 38.046 133.183 31.9262Z" fill="black"/>
<path d="M133.183 31.9257C141.377 25.8059 143.903 15.4318 138.826 8.75457C133.75 2.07731 122.992 1.62542 114.799 7.74525C106.605 13.8651 104.079 24.2392 109.155 30.9164C114.232 37.5937 124.99 38.0456 133.183 31.9257Z" fill="black"/>
<path d="M133.183 31.9257C141.377 25.8059 143.903 15.4318 138.826 8.75457C133.75 2.07731 122.992 1.62542 114.799 7.74525C106.605 13.8651 104.079 24.2392 109.155 30.9164C114.232 37.5937 124.99 38.0456 133.183 31.9257Z" fill="black" stroke="white" stroke-width="4" stroke-miterlimit="10"/>
<path d="M133.183 31.9257C141.377 25.8059 143.903 15.4318 138.826 8.75457C133.75 2.07731 122.992 1.62542 114.799 7.74525C106.605 13.8651 104.079 24.2392 109.155 30.9164C114.232 37.5937 124.99 38.0456 133.183 31.9257Z" stroke="white" stroke-width="4" stroke-miterlimit="10"/>
<path d="M133.183 31.9257C141.377 25.8059 143.903 15.4318 138.826 8.75457C133.75 2.07731 122.992 1.62542 114.799 7.74525C106.605 13.8651 104.079 24.2392 109.155 30.9164C114.232 37.5937 124.99 38.0456 133.183 31.9257Z" fill="black" stroke="white" stroke-width="4" stroke-miterlimit="10"/>
<path d="M115.704 17.9152L118.653 15.8694L122.279 20.9839C122.899 21.8022 123.37 22.6789 123.724 23.6434C123.931 24.374 123.872 25.1631 123.577 25.8645C123.194 26.7413 122.574 27.4719 121.749 27.998C120.776 28.6702 119.95 29.0501 119.242 29.167C118.564 29.2839 117.857 29.167 117.208 28.8748C116.5 28.5241 115.881 28.0272 115.409 27.3843L117.945 25.0462C118.151 25.3677 118.417 25.6599 118.712 25.8938C118.918 26.0399 119.154 26.1276 119.419 26.1276C119.626 26.1276 119.832 26.0399 119.98 25.923C120.274 25.7476 120.481 25.3969 120.451 25.0462C120.363 24.5494 120.156 24.0525 119.832 23.6726L115.704 17.9152V17.9152ZM124.55 21.1592L127.233 19.055C127.528 19.4057 127.911 19.6687 128.324 19.8148C128.914 19.9902 129.533 19.8733 130.034 19.4934C130.388 19.2596 130.683 18.9381 130.801 18.5289C130.978 18.0029 130.683 17.4184 130.152 17.243C130.064 17.2138 129.975 17.1845 129.887 17.1845C129.533 17.1553 128.914 17.3014 128 17.6814C126.496 18.2951 125.317 18.5289 124.432 18.4412C123.577 18.3536 122.781 17.9152 122.309 17.1845C121.955 16.6877 121.778 16.1032 121.749 15.5187C121.749 14.8465 121.926 14.1743 122.309 13.619C122.869 12.8299 123.547 12.1578 124.373 11.6317C125.611 10.7842 126.702 10.375 127.646 10.375C128.59 10.375 129.474 10.8134 130.3 11.7194L127.646 13.7944C127.115 13.1222 126.113 12.9761 125.435 13.5021L125.346 13.5898C125.051 13.7652 124.845 14.0282 124.727 14.3497C124.638 14.5835 124.697 14.8465 124.845 15.0511C124.963 15.1972 125.14 15.3141 125.346 15.3141C125.582 15.3433 125.995 15.2264 126.584 14.9634C128.059 14.3497 129.179 13.999 129.946 13.8821C130.595 13.7652 131.273 13.8236 131.892 14.0866C132.452 14.3204 132.924 14.7296 133.248 15.2264C133.661 15.8109 133.897 16.5124 133.927 17.243C133.956 18.0029 133.75 18.7335 133.337 19.3765C132.806 20.1656 132.128 20.8377 131.332 21.3638C129.71 22.4744 128.383 22.942 127.322 22.7666C126.172 22.5913 125.228 22.0068 124.55 21.1592V21.1592Z" fill="white"/>
</g>
<defs>
<clipPath id="clip0_112_243">
<rect width="163" height="60" fill="white"/>
</clipPath>
</defs>
</svg>
